<svg viewBox="0 0 32 32" version="1.1" xmlns="http://www.w3.org/2000/svg">
    <g id="Layer_1-2">
        <g id="SVGRepo_iconCarrier">
            <path d="M19.68,18.23c1.67,5.98,3.49,10.57-5.04,10.57-7.97,0-6.39-4.23-4.95-10.44-5.1-.53-9.26-2.09-8.62-5.9C3.96-4.62,27.06-.9,28.84,12.46c.43,3.2-3.99,5.05-9.16,5.77Z"
                  style="fill:#fff; stroke:#fff; stroke-width:2px;"/>
        </g>
        <g id="SVGRepo_iconCarrier-2">
            <path d="M28.84,12.46C27.06-.9,3.96-4.62,1.07,12.46c-.64,3.81,3.52,5.37,8.62,5.9-1.44,6.21-3.02,10.44,4.95,10.44,8.53,0,6.71-4.59,5.04-10.57,5.17-.72,9.59-2.57,9.16-5.77ZM16.62,2.23c2.12-.4,4.15,2.5,1.27,3.04-2.12.4-4.15-2.49-1.27-3.04ZM12.04,2.47c1.36.88-.04,2.46-1.04,1.8-1.37-.88.03-2.46,1.04-1.8ZM4.8,13.83c-1.53-.99.04-2.77,1.18-2.04,1.53,1-.04,2.78-1.18,2.04ZM7.13,9.61c-2.23.38-2.56-3.86.44-4.37,2.23-.39,2.57,3.85-.44,4.37ZM9.4,15.07c-1.85-1.2.05-3.35,1.42-2.46,1.85,1.19-.05,3.34-1.42,2.46ZM12.49,7.85c-1.36.88-3.25-1.25-1.41-2.44,1.36-.88,3.25,1.25,1.41,2.44ZM18.42,14.14c-2.8,1.81-6.69-2.58-2.91-5.03,2.81-1.82,6.7,2.58,2.91,5.03ZM22.29,7.98c-1.29-.39-1.37-2.65.38-2.12,1.29.39,1.37,2.65-.38,2.12ZM24.34,14.15c-2.64-1.71.07-4.77,2.03-3.51,2.64,1.71-.07,4.77-2.03,3.51Z"
                  style="fill:#107a3d; stroke-width:0px;"/>
        </g>
    </g>
</svg>